# xmcd
#
# Track frame offsets: 
#        150
#        31738
#        50333
#        76783
#        92573
#        122490
#        137334
#        160673
#        175995
#        187070
#        202723
#        218698
#
# Disc length: 3125 seconds
#
# Revision: 0
# Processed by: cddbd v1.5.2PL0 Copyright (c) Steve Scherf et al.
# Submitted via: ExactAudioCopy v0.95b3
#
DISCID=8a0c330c
DTITLE=The Intruders - Save The Children
DYEAR=1973
DGENRE=Soul
TTITLE0=Save The Children
TTITLE1=Mother And Child Reunion
TTITLE2=I Wanna Know Your Name
TTITLE3=To Be Happy Is The Real Thing
TTITLE4=I'll ALways Love My Mama
TTITLE5=Memories Are Here To Stay
TTITLE6=Teardrops
TTITLE7=Hang On In There
TTITLE8=(Win, Place Or Show) She's A Winner
TTITLE9=Traveling Home
TTITLE10=Energy Of Love
TTITLE11=A Nice Girl Like You
EXTD=
EXTT0=
EXTT1=
EXTT2=
EXTT3=
EXTT4=
EXTT5=
EXTT6=
EXTT7=
EXTT8=
EXTT9=
EXTT10=
EXTT11=
PLAYORDER=
